<svg fill="#ffffff" version="1.1" id="Layer_1" xmlns:x="&amp;ns_extend;" xmlns:i="&amp;ns_ai;" xmlns:graph="&amp;ns_graphs;" xmlns="http://www.w3.org/2000/svg" xmlns:xlink="http://www.w3.org/1999/xlink" viewBox="-1.2 -1.2 26.40 26.40" enable-background="new 0 0 24 24" xml:space="preserve" stroke="#ffffff"><g id="SVGRepo_bgCarrier" stroke-width="0"></g><g id="SVGRepo_tracerCarrier" stroke-linecap="round" stroke-linejoin="round" stroke="#CCCCCC" stroke-width="1.8240000000000003"> <metadata> <sfw xmlns="&amp;ns_sfw;"> <slices> </slices> <slicesourcebounds width="505" height="984" bottomleftorigin="true" x="0" y="-984"> </slicesourcebounds> </sfw> </metadata> <g> <g> <g> <path d="M12,24c-0.1,0-0.2,0-0.2,0c-0.4-0.1-0.8-0.5-0.8-1v-7.4l-2.6,1.3c-0.3,0.1-0.6,0.1-0.9,0S7.1,16.5,7,16.2l-3-15 C4,0.9,4,0.6,4.2,0.4C4.4,0.1,4.7,0,5,0h10c0.3,0,0.6,0.1,0.8,0.4C16,0.6,16,0.9,16,1.2l-1.6,7.4L19.7,7c0.4-0.1,0.8,0,1.1,0.3 c0.3,0.3,0.3,0.7,0.1,1.1l-8,15C12.7,23.8,12.4,24,12,24z M12,13c0.2,0,0.4,0.1,0.5,0.1c0.3,0.2,0.5,0.5,0.5,0.9v5l5-9.4L13.3,11 c-0.3,0.1-0.7,0-1-0.2c-0.3-0.2-0.4-0.6-0.3-0.9L13.8,2H6.2l2.5,12.5l2.8-1.4C11.7,13,11.8,13,12,13z"></path> </g> </g> </g> </g><g id="SVGRepo_iconCarrier"> <metadata> <sfw xmlns="&amp;ns_sfw;"> <slices> </slices> <slicesourcebounds width="505" height="984" bottomleftorigin="true" x="0" y="-984"> </slicesourcebounds> </sfw> </metadata> <g> <g> <g> <path d="M12,24c-0.1,0-0.2,0-0.2,0c-0.4-0.1-0.8-0.5-0.8-1v-7.4l-2.6,1.3c-0.3,0.1-0.6,0.1-0.9,0S7.1,16.5,7,16.2l-3-15 C4,0.9,4,0.6,4.2,0.4C4.4,0.1,4.7,0,5,0h10c0.3,0,0.6,0.1,0.8,0.4C16,0.6,16,0.9,16,1.2l-1.6,7.4L19.7,7c0.4-0.1,0.8,0,1.1,0.3 c0.3,0.3,0.3,0.7,0.1,1.1l-8,15C12.7,23.8,12.4,24,12,24z M12,13c0.2,0,0.4,0.1,0.5,0.1c0.3,0.2,0.5,0.5,0.5,0.9v5l5-9.4L13.3,11 c-0.3,0.1-0.7,0-1-0.2c-0.3-0.2-0.4-0.6-0.3-0.9L13.8,2H6.2l2.5,12.5l2.8-1.4C11.7,13,11.8,13,12,13z"></path> </g> </g> </g> </g></svg>