<svg viewBox="-1.44 -1.44 18.88 18.88" version="1.1" xmlns="http://www.w3.org/2000/svg" xmlns:xlink="http://www.w3.org/1999/xlink" fill="#ffffff" stroke="#ffffff"><g id="SVGRepo_bgCarrier" stroke-width="0"></g><g id="SVGRepo_tracerCarrier" stroke-linecap="round" stroke-linejoin="round" stroke="#CCCCCC" stroke-width="1.28"> <rect width="16" height="16" id="icon-bound" fill="none"></rect> <path d="M6.516,2.612L9.325,3.55l0.734,2.934l0.188,0.75l0.644,0.428l2.238,1.494L13.734,14H2.441l0.331-1.65l1.125-0.562 l0.875-0.438l0.191-0.959L6.516,2.612 M5,0L3,10l-2,1l-1,5h16l-1-8l-3-2l-1-4L5,0L5,0z"></path> </g><g id="SVGRepo_iconCarrier"> <rect width="16" height="16" id="icon-bound" fill="none"></rect> <path d="M6.516,2.612L9.325,3.55l0.734,2.934l0.188,0.75l0.644,0.428l2.238,1.494L13.734,14H2.441l0.331-1.65l1.125-0.562 l0.875-0.438l0.191-0.959L6.516,2.612 M5,0L3,10l-2,1l-1,5h16l-1-8l-3-2l-1-4L5,0L5,0z"></path> </g></svg>